<?xml version="1.0" encoding="UTF-8" standalone="no"?>
<!DOCTYPE svg PUBLIC "-//W3C//DTD SVG 1.1//EN" "http://www.w3.org/Graphics/SVG/1.1/DTD/svg11.dtd">
<svg xmlns="http://www.w3.org/2000/svg" version="1.1" viewBox="0.00 0.00 1933.00 280.00">
<rect fill="#005690" x="11.79" y="10.76" width="58.90" height="253.12" rx="4.95"/>
<path fill="#005690" d="
  M 1274.82 88.91
  C 1271.90 87.74 1265.70 86.64 1262.13 84.14
  C 1250.49 75.99 1243.80 61.66 1248.62 47.78
  C 1251.52 39.45 1252.21 30.52 1251.22 21.66
  Q 1251.02 19.79 1249.37 18.67
  C 1246.95 17.01 1246.59 14.15 1248.44 11.80
  Q 1249.37 10.62 1250.85 10.74
  C 1268.18 12.09 1286.69 19.20 1298.61 32.12
  C 1308.52 42.87 1312.80 58.93 1305.46 72.29
  C 1302.06 78.48 1296.74 84.60 1289.88 86.67
  Q 1284.89 88.17 1280.06 90.00
  C 1278.29 90.67 1276.43 89.55 1274.82 88.91
  Z"
/>
<path fill="#005690" d="
  M 236.63 176.37
  C 230.47 197.70 220.27 217.72 205.36 233.26
  C 196.63 242.36 185.49 249.87 174.24 255.56
  C 165.49 259.97 154.95 263.35 145.26 262.66
  C 142.81 262.49 142.94 259.97 144.01 258.30
  C 154.88 241.34 162.59 223.83 166.76 204.15
  Q 168.22 197.31 170.07 190.27
  C 171.61 184.43 171.35 177.51 172.48 171.23
  C 175.98 151.93 177.28 132.61 174.15 115.11
  Q 171.59 100.83 171.03 88.82
  C 170.84 84.66 168.71 81.31 167.99 77.29
  C 164.07 55.49 157.71 36.15 145.42 18.17
  Q 144.08 16.21 143.77 13.53
  A 1.96 1.95 -7.7 0 1 145.41 11.38
  Q 147.83 10.99 149.88 11.70
  Q 158.03 14.54 165.27 15.54
  Q 168.19 15.94 170.73 17.36
  C 177.72 21.23 184.84 24.21 191.16 29.30
  Q 226.08 57.43 236.78 100.66
  Q 241.43 119.47 242.94 138.13
  C 243.39 143.64 242.69 149.71 241.21 155.02
  C 239.32 161.82 238.69 169.27 236.63 176.37
  Z"
/>
<path fill="#005690" d="
  M 782.73 79.00
  C 782.72 81.53 784.19 83.30 786.75 83.30
  Q 814.23 83.28 846.10 83.17
  Q 850.44 83.15 850.46 87.49
  L 850.76 149.72
  A 1.36 1.36 0.0 0 1 848.52 150.76
  C 844.36 147.20 841.21 142.11 838.08 137.52
  Q 835.44 133.64 831.76 129.37
  Q 818.48 113.98 805.34 102.21
  C 803.20 100.29 782.93 83.58 782.87 94.41
  Q 782.58 142.47 782.87 169.95
  Q 782.97 178.79 784.51 189.21
  C 788.31 214.77 805.68 235.65 828.34 247.94
  C 834.70 251.39 841.39 254.91 848.87 255.84
  C 851.26 256.14 852.15 259.40 851.08 261.19
  Q 850.67 261.87 849.88 261.92
  Q 821.39 263.63 792.09 262.54
  C 790.07 262.46 787.80 262.14 785.86 261.36
  Q 780.93 259.37 776.12 258.15
  C 768.22 256.14 761.47 251.59 755.67 245.95
  C 744.01 234.64 733.42 218.20 729.00 201.87
  Q 727.40 195.98 727.22 187.51
  Q 726.73 164.64 726.21 143.42
  Q 725.56 116.57 723.40 98.79
  C 722.28 89.65 717.62 80.06 710.47 73.28
  C 708.69 71.60 708.69 69.26 710.96 67.94
  Q 748.00 46.36 780.22 15.96
  A 1.57 1.57 0.0 0 1 782.14 15.78
  Q 782.94 16.28 782.94 17.50
  Q 782.77 48.24 782.73 79.00
  Z"
/>
<path fill="#005690" d="
  M 1851.91 90.04
  A 1.30 1.29 -9.2 0 0 1851.05 91.23
  Q 1849.99 139.23 1850.97 187.37
  Q 1851.05 191.03 1852.99 195.92
  C 1854.79 200.47 1855.19 205.42 1857.26 209.95
  C 1865.30 227.53 1884.18 242.23 1901.31 250.97
  Q 1908.80 254.80 1916.70 255.95
  C 1918.86 256.26 1920.74 258.20 1918.98 260.23
  Q 1917.50 261.92 1915.08 262.10
  Q 1897.67 263.33 1880.84 263.55
  Q 1863.51 263.78 1850.30 260.65
  C 1828.00 255.38 1810.19 234.57 1801.43 214.41
  C 1796.49 203.03 1795.01 189.96 1794.42 177.54
  Q 1792.62 139.84 1791.80 106.57
  C 1791.49 94.15 1787.71 82.44 1778.30 73.99
  C 1776.24 72.14 1776.40 69.17 1778.82 67.76
  Q 1815.15 46.67 1846.14 17.48
  C 1848.19 15.54 1850.46 16.92 1850.48 19.56
  Q 1850.72 51.00 1850.81 81.55
  Q 1850.81 83.42 1852.68 83.41
  Q 1884.74 83.30 1913.86 83.16
  C 1916.44 83.15 1918.50 85.03 1918.51 87.67
  Q 1918.52 116.21 1918.56 149.15
  A 1.80 1.80 0.0 0 1 1917.93 150.52
  C 1916.86 151.44 1915.46 151.24 1914.68 150.09
  Q 1901.96 131.33 1886.65 114.88
  C 1877.47 105.02 1866.31 94.59 1853.71 90.06
  Q 1852.78 89.73 1851.91 90.04
  Z"
/>
<path fill="#005690" d="
  M 1700.39 28.69
  C 1722.14 33.68 1749.70 47.73 1747.23 74.29
  C 1743.54 114.12 1683.12 100.39 1691.81 68.38
  C 1692.91 64.33 1694.68 60.47 1695.62 56.28
  Q 1696.79 51.00 1698.70 45.69
  C 1699.72 42.85 1696.71 37.14 1695.53 34.41
  C 1694.05 30.98 1696.69 27.84 1700.39 28.69
  Z"
/>
<path fill="#005690" d="
  M 1598.91 78.70
  C 1601.66 66.67 1610.55 54.94 1619.87 47.24
  Q 1632.74 36.61 1646.77 31.53
  C 1649.61 30.51 1650.73 32.78 1650.73 35.25
  Q 1650.75 151.12 1650.75 261.96
  A 4.26 4.25 89.9 0 1 1646.52 266.22
  Q 1622.37 266.33 1598.74 266.55
  C 1596.34 266.57 1595.33 265.12 1595.33 263.00
  Q 1595.22 183.66 1595.52 109.92
  Q 1595.59 93.25 1598.91 78.70
  Z"
/>
<path fill="#005690" d="
  M 1182.02 94.44
  C 1204.17 103.45 1226.52 111.25 1247.41 121.66
  Q 1262.06 128.96 1273.37 140.34
  C 1287.89 154.95 1299.77 173.50 1302.69 193.72
  Q 1303.54 199.54 1305.38 204.99
  Q 1306.61 208.62 1306.91 212.60
  C 1307.15 215.87 1306.61 222.14 1301.57 220.19
  Q 1246.46 198.83 1199.28 178.63
  Q 1188.19 173.89 1179.33 169.14
  C 1147.21 151.91 1120.16 121.55 1111.55 85.32
  C 1110.27 79.95 1110.31 74.08 1112.05 68.88
  A 1.95 1.94 -70.1 0 1 1114.60 67.68
  Q 1148.63 80.85 1182.02 94.44
  Z"
/>
<path fill="#005690" d="
  M 950.39 86.07
  Q 951.49 85.59 952.58 85.08
  Q 955.59 83.66 957.66 86.50
  A 2.29 2.29 0.0 0 1 957.58 89.32
  C 937.30 113.94 937.10 144.09 938.99 174.46
  C 939.14 176.86 941.22 179.29 941.90 181.73
  C 942.80 184.95 942.91 188.34 944.41 191.43
  Q 957.31 218.01 981.02 232.19
  Q 1001.08 244.19 1021.98 244.24
  Q 1030.59 244.25 1038.43 243.72
  Q 1040.63 243.57 1042.65 244.42
  A 1.16 1.15 30.0 0 1 1043.13 246.19
  Q 1041.51 248.29 1039.25 249.80
  Q 1025.44 259.01 1010.48 263.78
  C 1004.37 265.73 997.85 266.45 991.28 266.58
  Q 971.46 266.97 952.43 266.29
  C 951.35 266.25 950.10 266.08 949.21 265.43
  Q 945.20 262.49 940.41 262.58
  Q 938.83 262.61 937.36 261.96
  C 909.05 249.39 883.72 227.15 878.90 195.01
  Q 878.05 189.34 876.69 183.29
  C 875.21 176.75 875.24 169.54 877.23 163.39
  Q 878.71 158.82 878.90 157.00
  Q 879.39 152.36 880.40 149.15
  Q 892.41 110.95 928.62 93.36
  C 933.40 91.04 939.39 88.02 944.48 87.40
  Q 948.53 86.90 950.39 86.07
  Z"
/>
<path fill="#005690" d="
  M 344.03 109.22
  Q 338.33 125.48 336.39 140.12
  C 331.01 180.61 349.58 218.71 387.27 235.89
  Q 394.05 238.97 400.34 241.56
  Q 405.04 243.50 411.76 243.95
  Q 423.36 244.72 435.53 244.00
  Q 437.83 243.86 440.11 244.69
  A 1.30 1.30 0.0 0 1 440.78 246.60
  Q 439.66 248.42 437.69 249.89
  Q 416.67 265.56 388.97 266.53
  Q 376.15 266.98 364.86 266.93
  C 344.91 266.85 327.28 259.73 310.74 247.23
  C 292.20 233.22 277.73 210.57 275.28 186.71
  C 274.20 176.25 274.15 164.36 277.06 153.97
  C 287.75 115.72 313.98 91.83 353.20 84.82
  A 1.81 1.80 69.4 0 1 355.05 85.66
  Q 355.95 87.14 355.05 88.56
  C 350.79 95.28 346.77 101.40 344.03 109.22
  Z"
/>
<path fill="#005690" d="
  M 1007.20 110.93
  Q 1001.81 98.65 994.68 88.07
  A 1.97 1.96 63.7 0 1 995.68 85.10
  Q 996.69 84.76 997.83 84.95
  C 1023.82 89.09 1046.09 104.58 1060.52 126.09
  Q 1075.94 149.09 1075.02 176.81
  A 2.02 2.02 0.0 0 1 1073.00 178.76
  Q 1046.57 178.75 1016.51 178.57
  C 1014.36 178.56 1012.30 177.27 1012.82 174.83
  Q 1016.76 156.21 1014.42 141.54
  Q 1012.78 131.27 1010.68 121.17
  Q 1009.77 116.79 1007.20 110.93
  Z"
/>
<path fill="#005690" d="
  M 410.89 135.29
  C 409.14 117.38 403.34 102.34 391.81 88.13
  A 1.97 1.96 64.4 0 1 392.92 84.97
  Q 393.72 84.80 394.79 85.05
  Q 395.72 85.27 396.68 85.45
  Q 440.99 93.55 461.57 132.16
  C 464.42 137.52 467.03 143.39 469.93 148.98
  C 471.19 151.42 470.63 155.29 471.84 158.33
  Q 475.33 167.11 474.62 176.47
  A 2.46 2.45 -87.8 0 1 472.19 178.73
  Q 444.19 178.83 414.54 178.67
  C 412.65 178.66 411.20 177.57 411.29 175.57
  Q 412.45 151.12 410.89 135.29
  Z"
/>
<path fill="#005690" d="
  M 628.73 87.50
  C 649.80 94.80 666.37 110.60 675.22 130.60
  Q 678.60 138.24 681.45 147.05
  Q 682.58 150.56 682.65 154.22
  Q 683.66 210.30 683.00 259.82
  C 682.98 261.54 681.68 262.76 679.98 262.75
  Q 653.29 262.75 626.09 262.75
  A 2.76 2.76 0.0 0 1 623.33 259.99
  Q 623.31 176.13 623.33 92.78
  C 623.33 89.22 624.18 85.92 628.73 87.50
  Z"
/>
<path fill="#005690" d="
  M 1423.04 91.01
  C 1416.49 99.15 1410.52 109.65 1407.92 119.79
  Q 1406.91 123.71 1406.03 128.19
  C 1405.37 131.59 1402.55 134.59 1402.58 138.02
  C 1402.64 148.79 1400.27 159.56 1399.16 169.83
  C 1398.60 175.04 1399.04 180.39 1399.92 185.53
  Q 1402.16 198.61 1402.95 211.20
  C 1403.17 214.85 1405.29 217.10 1406.08 220.46
  C 1406.77 223.38 1406.94 226.48 1407.88 229.30
  Q 1412.69 243.77 1422.42 257.91
  C 1424.34 260.69 1422.17 262.87 1419.30 262.92
  C 1403.92 263.16 1390.04 258.08 1377.59 249.42
  C 1327.97 214.91 1325.39 141.81 1372.67 104.15
  Q 1392.91 88.03 1421.07 87.03
  C 1423.38 86.95 1424.46 89.24 1423.04 91.01
  Z"
/>
<path fill="#005690" d="
  M 1554.95 185.12
  C 1553.49 211.30 1537.83 235.50 1516.29 249.73
  C 1504.12 257.77 1490.12 264.24 1475.69 262.89
  Q 1474.22 262.75 1473.15 261.92
  A 2.64 2.64 0.0 0 1 1472.62 258.29
  Q 1480.14 247.79 1484.91 236.42
  Q 1485.99 233.84 1486.58 231.39
  C 1487.28 228.46 1487.75 225.22 1489.21 222.54
  C 1490.02 221.03 1490.91 219.78 1491.01 217.99
  Q 1491.55 208.07 1493.38 198.93
  C 1495.81 186.87 1495.25 174.59 1493.95 162.31
  Q 1492.55 149.17 1490.79 136.38
  C 1488.46 119.43 1479.95 103.90 1472.21 88.55
  A 1.07 1.07 0.0 0 1 1473.16 87.00
  Q 1479.25 86.98 1484.96 87.39
  Q 1488.88 87.67 1494.70 89.70
  Q 1532.68 102.95 1549.11 139.67
  C 1550.94 143.75 1550.56 148.20 1553.48 151.79
  A 4.03 4.01 -67.2 0 1 1554.36 153.96
  Q 1555.78 170.10 1554.95 185.12
  Z"
/>
<path fill="#005690" d="
  M 566.77 92.34
  L 566.84 260.77
  A 1.99 1.99 0.0 0 1 564.85 262.77
  L 509.07 262.91
  A 1.99 1.99 0.0 0 1 507.07 260.92
  L 507.07 111.52
  A 1.99 1.99 0.0 0 1 508.41 109.64
  L 564.13 90.46
  A 1.99 1.99 0.0 0 1 566.77 92.34
  Z"
/>
<path fill="#005690" d="
  M 1721.99 201.35
  Q 1721.69 202.08 1720.91 202.03
  Q 1719.38 201.93 1718.47 200.79
  Q 1703.30 181.78 1682.29 169.33
  Q 1679.95 167.94 1679.24 166.52
  C 1678.34 164.70 1679.29 162.64 1680.98 161.65
  Q 1702.27 149.13 1717.21 130.55
  Q 1718.29 129.20 1720.16 128.76
  A 0.83 0.82 66.2 0 1 1721.03 129.10
  Q 1722.11 130.66 1722.13 132.59
  Q 1722.42 164.64 1722.60 198.17
  Q 1722.61 199.80 1721.99 201.35
  Z"
/>
<path fill="#005690" d="
  M 1178.82 251.35
  C 1186.17 255.35 1194.98 256.08 1201.39 262.01
  Q 1202.42 262.96 1201.02 262.96
  L 1112.29 262.62
  A 1.46 1.45 89.8 0 1 1110.84 261.17
  Q 1110.69 229.61 1110.72 196.27
  Q 1110.73 194.18 1112.67 194.67
  Q 1112.99 194.74 1113.76 195.74
  Q 1140.59 230.57 1178.82 251.35
  Z"
/>
</svg>
